<svg width="180" height="49" viewBox="0 0 180 49" fill="none" xmlns="http://www.w3.org/2000/svg">
<path d="M4.16707 34.326H10.9271V43.426H10.0171V35.158H5.07707V43.426H4.16707V34.326ZM15.8696 34.326H16.9096L20.2896 43.426H19.3016L18.3526 40.787H14.3746L13.4256 43.426H12.4896L15.8696 34.326ZM18.0536 39.955L16.3896 35.301H16.3636L14.6736 39.955H18.0536ZM21.2605 42.685H21.3905C21.7719 42.685 22.0665 42.568 22.2745 42.334C22.4912 42.1 22.6472 41.7794 22.7425 41.372C22.8465 40.956 22.9072 40.4707 22.9245 39.916C22.9419 39.3527 22.9505 38.746 22.9505 38.096V34.326H28.6705V43.426H27.7605V35.158H23.8605V38.096C23.8605 38.8154 23.8432 39.5 23.8085 40.15C23.7825 40.8 23.6915 41.3764 23.5355 41.879C23.3795 42.3817 23.1325 42.7804 22.7945 43.075C22.4652 43.3697 21.9972 43.517 21.3905 43.517H21.2605V42.685ZM34.45 43.517C33.8866 43.517 33.3753 43.4217 32.916 43.231C32.4566 43.0404 32.058 42.763 31.72 42.399C31.3906 42.0264 31.135 41.5714 30.953 41.034C30.771 40.488 30.68 39.864 30.68 39.162V38.46C30.68 37.7927 30.771 37.199 30.953 36.679C31.1436 36.1504 31.4036 35.7084 31.733 35.353C32.0623 34.989 32.4566 34.7117 32.916 34.521C33.384 34.3304 33.8953 34.235 34.45 34.235C35.0046 34.235 35.5116 34.3304 35.971 34.521C36.439 34.703 36.8376 34.976 37.167 35.34C37.505 35.6954 37.765 36.1374 37.947 36.666C38.129 37.186 38.22 37.784 38.22 38.46V39.162C38.22 39.864 38.1246 40.488 37.934 41.034C37.752 41.5714 37.4963 42.0264 37.167 42.399C36.8376 42.763 36.439 43.0404 35.971 43.231C35.5116 43.4217 35.0046 43.517 34.45 43.517ZM34.45 42.685C34.866 42.685 35.2473 42.6114 35.594 42.464C35.9406 42.3167 36.2396 42.0957 36.491 41.801C36.7423 41.5064 36.9373 41.1424 37.076 40.709C37.2146 40.267 37.284 39.7514 37.284 39.162V38.46C37.284 37.914 37.2103 37.433 37.063 37.017C36.9243 36.5924 36.7293 36.237 36.478 35.951C36.2266 35.6564 35.9276 35.4354 35.581 35.288C35.2343 35.1407 34.8573 35.067 34.45 35.067C34.034 35.067 33.6526 35.1407 33.306 35.288C32.9593 35.4354 32.6603 35.652 32.409 35.938C32.1576 36.224 31.9626 36.5794 31.824 37.004C31.6853 37.42 31.616 37.9054 31.616 38.46V39.162C31.616 39.7427 31.6853 40.254 31.824 40.696C31.9713 41.1294 32.1706 41.4934 32.422 41.788C32.6733 42.0827 32.9723 42.308 33.319 42.464C33.6656 42.6114 34.0426 42.685 34.45 42.685ZM40.2345 34.326H41.5865L44.3425 39.76H44.3685L47.1245 34.326H48.4245V43.426H47.5145V35.431H47.4885L44.7845 40.761H43.8745L41.1705 35.431H41.1445V43.426H40.2345V34.326ZM50.7589 34.326H51.6689V38.33H56.7389V34.326H57.6489V43.426H56.7389V39.162H51.6689V43.426H50.7589V34.326ZM59.9884 34.326H60.8984V42.386H60.9244L65.5784 34.326H66.8784V43.426H65.9684V35.366H65.9424L61.2884 43.426H59.9884V34.326ZM71.9479 40.072C71.4279 40.072 70.9902 40.02 70.6349 39.916C70.2795 39.812 69.9849 39.6777 69.7509 39.513C69.5255 39.3484 69.3479 39.1577 69.2179 38.941C69.0965 38.7244 69.0055 38.5034 68.9449 38.278C68.8842 38.044 68.8495 37.8187 68.8409 37.602C68.8322 37.3767 68.8279 37.173 68.8279 36.991V34.326H69.7379V36.926C69.7379 37.1687 69.7509 37.4244 69.7769 37.693C69.8029 37.9617 69.8852 38.213 70.0239 38.447C70.1625 38.6724 70.3792 38.863 70.6739 39.019C70.9772 39.1664 71.4019 39.24 71.9479 39.24C72.7192 39.24 73.4559 39.1274 74.1579 38.902V34.326H75.0679V43.426H74.1579V39.76C73.7852 39.864 73.4082 39.942 73.0269 39.994C72.6542 40.046 72.2945 40.072 71.9479 40.072ZM77.4063 34.326H82.8663V35.158H78.3163V38.33H82.0863V39.162H78.3163V42.594H82.8663V43.426H77.4063V34.326ZM87.8068 43.517C87.2608 43.517 86.7625 43.4217 86.3118 43.231C85.8612 43.0404 85.4712 42.763 85.1418 42.399C84.8125 42.0264 84.5568 41.5714 84.3748 41.034C84.1928 40.488 84.1018 39.864 84.1018 39.162V38.46C84.1018 37.7927 84.1928 37.199 84.3748 36.679C84.5568 36.1504 84.8125 35.7084 85.1418 35.353C85.4712 34.989 85.8612 34.7117 86.3118 34.521C86.7712 34.3304 87.2695 34.235 87.8068 34.235C88.3008 34.235 88.7428 34.3087 89.1328 34.456C89.5315 34.5947 89.8782 34.7854 90.1728 35.028C90.4675 35.2707 90.7015 35.5567 90.8748 35.886C91.0568 36.2067 91.1825 36.5534 91.2518 36.926H90.2898C90.2205 36.666 90.1165 36.4234 89.9778 36.198C89.8478 35.9727 89.6788 35.7777 89.4708 35.613C89.2628 35.4397 89.0202 35.3054 88.7428 35.21C88.4655 35.1147 88.1535 35.067 87.8068 35.067C87.4082 35.067 87.0398 35.1407 86.7018 35.288C86.3638 35.4354 86.0692 35.652 85.8178 35.938C85.5752 36.224 85.3845 36.5794 85.2458 37.004C85.1072 37.42 85.0378 37.9054 85.0378 38.46V39.162C85.0378 39.7427 85.1072 40.254 85.2458 40.696C85.3932 41.138 85.5882 41.5064 85.8308 41.801C86.0822 42.0957 86.3768 42.3167 86.7148 42.464C87.0528 42.6114 87.4168 42.685 87.8068 42.685C88.5088 42.685 89.0635 42.4987 89.4708 42.126C89.8868 41.7534 90.1598 41.2767 90.2898 40.696H91.2518C91.1825 41.1034 91.0568 41.4804 90.8748 41.827C90.7015 42.165 90.4675 42.4597 90.1728 42.711C89.8782 42.9624 89.5315 43.1617 89.1328 43.309C88.7428 43.4477 88.3008 43.517 87.8068 43.517ZM93.1358 34.326H94.0458V38.33H95.4758L98.4398 34.326H99.5058L96.2298 38.72L99.7658 43.426H98.6478L95.4758 39.162H94.0458V43.426H93.1358V34.326ZM104.115 34.326H105.155L108.535 43.426H107.547L106.598 40.787H102.62L101.671 43.426H100.735L104.115 34.326ZM106.299 39.955L104.635 35.301H104.609L102.919 39.955H106.299ZM115.097 43.426V39.708H113.082C113.022 39.708 112.961 39.708 112.9 39.708C112.848 39.6994 112.796 39.695 112.744 39.695L110.677 43.426H109.637L111.821 39.552C111.171 39.3787 110.686 39.071 110.365 38.629C110.053 38.187 109.897 37.6497 109.897 37.017C109.897 36.1937 110.157 35.5394 110.677 35.054C111.206 34.5687 112.008 34.326 113.082 34.326H116.007V43.426H115.097ZM115.097 35.158H113.147C112.333 35.158 111.743 35.3227 111.379 35.652C111.015 35.9814 110.833 36.4364 110.833 37.017C110.833 37.615 111.011 38.0744 111.366 38.395C111.73 38.7157 112.324 38.876 113.147 38.876H115.097V35.158ZM124.979 43.517C124.433 43.517 123.934 43.4217 123.484 43.231C123.033 43.0404 122.643 42.763 122.314 42.399C121.984 42.0264 121.729 41.5714 121.547 41.034C121.365 40.488 121.274 39.864 121.274 39.162V38.46C121.274 37.7927 121.365 37.199 121.547 36.679C121.729 36.1504 121.984 35.7084 122.314 35.353C122.643 34.989 123.033 34.7117 123.484 34.521C123.943 34.3304 124.441 34.235 124.979 34.235C125.473 34.235 125.915 34.3087 126.305 34.456C126.703 34.5947 127.05 34.7854 127.345 35.028C127.639 35.2707 127.873 35.5567 128.047 35.886C128.229 36.2067 128.354 36.5534 128.424 36.926H127.462C127.392 36.666 127.288 36.4234 127.15 36.198C127.02 35.9727 126.851 35.7777 126.643 35.613C126.435 35.4397 126.192 35.3054 125.915 35.21C125.637 35.1147 125.325 35.067 124.979 35.067C124.58 35.067 124.212 35.1407 123.874 35.288C123.536 35.4354 123.241 35.652 122.99 35.938C122.747 36.224 122.556 36.5794 122.418 37.004C122.279 37.42 122.21 37.9054 122.21 38.46V39.162C122.21 39.7427 122.279 40.254 122.418 40.696C122.565 41.138 122.76 41.5064 123.003 41.801C123.254 42.0957 123.549 42.3167 123.887 42.464C124.225 42.6114 124.589 42.685 124.979 42.685C125.681 42.685 126.235 42.4987 126.643 42.126C127.059 41.7534 127.332 41.2767 127.462 40.696H128.424C128.354 41.1034 128.229 41.4804 128.047 41.827C127.873 42.165 127.639 42.4597 127.345 42.711C127.05 42.9624 126.703 43.1617 126.305 43.309C125.915 43.4477 125.473 43.517 124.979 43.517ZM129.133 42.685H129.263C129.644 42.685 129.939 42.568 130.147 42.334C130.363 42.1 130.519 41.7794 130.615 41.372C130.719 40.956 130.779 40.4707 130.797 39.916C130.814 39.3527 130.823 38.746 130.823 38.096V34.326H136.543V43.426H135.633V35.158H131.733V38.096C131.733 38.8154 131.715 39.5 131.681 40.15C131.655 40.8 131.564 41.3764 131.408 41.879C131.252 42.3817 131.005 42.7804 130.667 43.075C130.337 43.3697 129.869 43.517 129.263 43.517H129.133V42.685ZM141.425 40.826L138.097 34.326H139.137L141.893 39.786H141.919L144.259 34.326H145.247L141.282 43.426H140.294L141.425 40.826ZM148.996 38.72L146.292 34.326H147.306L149.737 38.33H151.167V34.326H152.077V38.33H153.507L155.938 34.326H156.952L154.235 38.72L157.147 43.426H156.081L153.507 39.162H152.077V43.426H151.167V39.162H149.737L147.163 43.426H146.097L148.996 38.72ZM158.771 34.326H164.231V35.158H159.681V38.044H161.826C162.84 38.044 163.602 38.2867 164.114 38.772C164.625 39.2487 164.881 39.903 164.881 40.735C164.881 41.5497 164.621 42.204 164.101 42.698C163.581 43.1834 162.822 43.426 161.826 43.426H158.771V34.326ZM159.681 38.876V42.594H161.761C162.523 42.594 163.078 42.4337 163.425 42.113C163.771 41.7924 163.945 41.333 163.945 40.735C163.945 40.137 163.771 39.6777 163.425 39.357C163.078 39.0364 162.523 38.876 161.761 38.876H159.681ZM169.178 34.326H170.218L173.598 43.426H172.61L171.661 40.787H167.683L166.734 43.426H165.798L169.178 34.326ZM171.362 39.955L169.698 35.301H169.672L167.982 39.955H171.362Z" fill="#454545"/>
<path d="M15.5886 11.7166H10.8868V23.5742H5.56581V11.7166H0.864038V7.51938H15.5886V11.7166ZM32.7341 7.51938L26.2893 19.6064C25.5248 21.0437 24.5844 22.1369 23.4682 22.8862C22.3673 23.6354 21.1517 24.01 19.8215 24.01C18.797 24.01 17.7573 23.7959 16.7022 23.3678L17.9637 19.4688C18.6365 19.6523 19.1869 19.744 19.6151 19.744C20.0126 19.744 20.349 19.6752 20.6242 19.5376C20.9147 19.4 21.19 19.1706 21.4499 18.8495L15.3032 7.51938H21.0141L24.2021 14.2853L27.5049 7.51938H32.7341ZM41.5878 7.51938C43.0709 7.51938 44.363 7.76402 45.4639 8.25331C46.5648 8.7426 47.4134 9.44596 48.0097 10.3634C48.606 11.2808 48.9042 12.3511 48.9042 13.5743C48.9042 14.7976 48.606 15.8679 48.0097 16.7853C47.4134 17.7027 46.5648 18.4061 45.4639 18.8954C44.363 19.3847 43.0709 19.6293 41.5878 19.6293H39.2713V23.5742H33.8585V7.51938H41.5878ZM41.2437 15.4551C41.9777 15.4551 42.5281 15.2945 42.8951 14.9734C43.2621 14.637 43.4456 14.1707 43.4456 13.5743C43.4456 12.978 43.2621 12.5193 42.8951 12.1982C42.5281 11.8618 41.9777 11.6936 41.2437 11.6936H39.2713V15.4551H41.2437ZM75.6495 19.377V26.7164H70.6954V23.5742H61.5671V26.7164H56.613V19.377H57.0717C58.0045 19.377 58.6619 18.7883 59.0442 17.611C59.4265 16.4336 59.6711 14.6982 59.7781 12.4046L59.9616 7.51938H73.5394V19.377H75.6495ZM64.4799 12.8633C64.4187 14.4077 64.2964 15.7226 64.1129 16.8083C63.9295 17.8786 63.6466 18.7348 63.2643 19.377H68.2184V11.7166H64.5258L64.4799 12.8633ZM77.4673 7.51938H82.7883V15.8679L88.3158 7.51938H93.4075V23.5742H88.0864V15.2486L82.5819 23.5742H77.4673V7.51938ZM108.598 15.1569C109.501 15.478 110.189 15.9596 110.663 16.6018C111.137 17.2287 111.374 18.0009 111.374 18.9183C111.374 20.3556 110.8 21.4947 109.653 22.3357C108.522 23.1614 106.917 23.5742 104.837 23.5742H96.2592V7.51938H104.401C106.389 7.51938 107.926 7.88635 109.011 8.62028C110.112 9.35422 110.663 10.3863 110.663 11.7166C110.663 12.4811 110.479 13.1539 110.112 13.7349C109.761 14.3159 109.256 14.7899 108.598 15.1569ZM101.58 13.689H103.874C104.761 13.689 105.204 13.2991 105.204 12.5193C105.204 11.7089 104.761 11.3037 103.874 11.3037H101.58V13.689ZM104.585 19.7899C105.472 19.7899 105.915 19.3617 105.915 18.5055C105.915 17.6798 105.472 17.267 104.585 17.267H101.58V19.7899H104.585ZM126.652 19.4917V23.5742H113.304V7.51938H126.354V11.6019H118.625V13.4826H125.414V17.3816H118.625V19.4917H126.652ZM142.197 19.4917V23.5742H128.848V7.51938H141.898V11.6019H134.169V13.4826H140.958V17.3816H134.169V19.4917H142.197ZM156.732 15.1569C157.634 15.478 158.322 15.9596 158.796 16.6018C159.27 17.2287 159.507 18.0009 159.507 18.9183C159.507 20.3556 158.933 21.4947 157.787 22.3357C156.655 23.1614 155.05 23.5742 152.97 23.5742H144.392V7.51938H152.534C154.522 7.51938 156.059 7.88635 157.144 8.62028C158.245 9.35422 158.796 10.3863 158.796 11.7166C158.796 12.4811 158.612 13.1539 158.245 13.7349C157.894 14.3159 157.389 14.7899 156.732 15.1569ZM149.713 13.689H152.007C152.894 13.689 153.337 13.2991 153.337 12.5193C153.337 11.7089 152.894 11.3037 152.007 11.3037H149.713V13.689ZM152.718 19.7899C153.605 19.7899 154.048 19.3617 154.048 18.5055C154.048 17.6798 153.605 17.267 152.718 17.267H149.713V19.7899H152.718ZM169.602 23.9412C167.874 23.9412 166.322 23.5819 164.946 22.8632C163.57 22.1446 162.492 21.1507 161.712 19.8816C160.933 18.5972 160.543 17.1523 160.543 15.5468C160.543 13.9413 160.933 12.504 161.712 11.2349C162.492 9.95054 163.57 8.94902 164.946 8.23038C166.322 7.51173 167.874 7.15241 169.602 7.15241C171.33 7.15241 172.882 7.51173 174.258 8.23038C175.634 8.94902 176.712 9.95054 177.492 11.2349C178.272 12.504 178.662 13.9413 178.662 15.5468C178.662 17.1523 178.272 18.5972 177.492 19.8816C176.712 21.1507 175.634 22.1446 174.258 22.8632C172.882 23.5819 171.33 23.9412 169.602 23.9412ZM169.602 19.5605C170.275 19.5605 170.879 19.4 171.414 19.0789C171.965 18.7425 172.4 18.2761 172.721 17.6798C173.043 17.0682 173.203 16.3572 173.203 15.5468C173.203 14.7364 173.043 14.0331 172.721 13.4367C172.4 12.8251 171.965 12.3588 171.414 12.0377C170.879 11.7013 170.275 11.5331 169.602 11.5331C168.929 11.5331 168.318 11.7013 167.767 12.0377C167.232 12.3588 166.804 12.8251 166.483 13.4367C166.162 14.0331 166.001 14.7364 166.001 15.5468C166.001 16.3572 166.162 17.0682 166.483 17.6798C166.804 18.2761 167.232 18.7425 167.767 19.0789C168.318 19.4 168.929 19.5605 169.602 19.5605Z" fill="#F9CD2D"/>
<circle cx="174.997" cy="10.5742" r="4.5" fill="#FF0000"/>
</svg>
