<svg width="179" height="47" viewBox="0 0 179 47" fill="none" xmlns="http://www.w3.org/2000/svg">
<path d="M3.67 32.8785H10.43V41.9785H9.52V33.7105H4.58V41.9785H3.67V32.8785ZM15.3725 32.8785H16.4125L19.7925 41.9785H18.8045L17.8555 39.3395H13.8775L12.9285 41.9785H11.9925L15.3725 32.8785ZM17.5565 38.5075L15.8925 33.8535H15.8665L14.1765 38.5075H17.5565ZM20.7635 41.2375H20.8935C21.2748 41.2375 21.5695 41.1205 21.7775 40.8865C21.9941 40.6525 22.1501 40.3318 22.2455 39.9245C22.3495 39.5085 22.4101 39.0232 22.4275 38.4685C22.4448 37.9052 22.4535 37.2985 22.4535 36.6485V32.8785H28.1735V41.9785H27.2635V33.7105H23.3635V36.6485C23.3635 37.3678 23.3461 38.0525 23.3115 38.7025C23.2855 39.3525 23.1945 39.9288 23.0385 40.4315C22.8825 40.9342 22.6355 41.3328 22.2975 41.6275C21.9681 41.9222 21.5001 42.0695 20.8935 42.0695H20.7635V41.2375ZM33.9529 42.0695C33.3896 42.0695 32.8782 41.9742 32.4189 41.7835C31.9596 41.5928 31.5609 41.3155 31.2229 40.9515C30.8936 40.5788 30.6379 40.1238 30.4559 39.5865C30.2739 39.0405 30.1829 38.4165 30.1829 37.7145V37.0125C30.1829 36.3452 30.2739 35.7515 30.4559 35.2315C30.6466 34.7028 30.9066 34.2608 31.2359 33.9055C31.5652 33.5415 31.9596 33.2642 32.4189 33.0735C32.8869 32.8828 33.3982 32.7875 33.9529 32.7875C34.5076 32.7875 35.0146 32.8828 35.4739 33.0735C35.9419 33.2555 36.3406 33.5285 36.6699 33.8925C37.0079 34.2478 37.2679 34.6898 37.4499 35.2185C37.6319 35.7385 37.7229 36.3365 37.7229 37.0125V37.7145C37.7229 38.4165 37.6276 39.0405 37.4369 39.5865C37.2549 40.1238 36.9992 40.5788 36.6699 40.9515C36.3406 41.3155 35.9419 41.5928 35.4739 41.7835C35.0146 41.9742 34.5076 42.0695 33.9529 42.0695ZM33.9529 41.2375C34.3689 41.2375 34.7502 41.1638 35.0969 41.0165C35.4436 40.8692 35.7426 40.6482 35.9939 40.3535C36.2452 40.0588 36.4402 39.6948 36.5789 39.2615C36.7176 38.8195 36.7869 38.3038 36.7869 37.7145V37.0125C36.7869 36.4665 36.7132 35.9855 36.5659 35.5695C36.4272 35.1448 36.2322 34.7895 35.9809 34.5035C35.7296 34.2088 35.4306 33.9878 35.0839 33.8405C34.7372 33.6932 34.3602 33.6195 33.9529 33.6195C33.5369 33.6195 33.1556 33.6932 32.8089 33.8405C32.4622 33.9878 32.1632 34.2045 31.9119 34.4905C31.6606 34.7765 31.4656 35.1318 31.3269 35.5565C31.1882 35.9725 31.1189 36.4578 31.1189 37.0125V37.7145C31.1189 38.2952 31.1882 38.8065 31.3269 39.2485C31.4742 39.6818 31.6736 40.0458 31.9249 40.3405C32.1762 40.6352 32.4752 40.8605 32.8219 41.0165C33.1686 41.1638 33.5456 41.2375 33.9529 41.2375ZM39.7374 32.8785H41.0894L43.8454 38.3125H43.8714L46.6274 32.8785H47.9274V41.9785H47.0174V33.9835H46.9914L44.2874 39.3135H43.3774L40.6734 33.9835H40.6474V41.9785H39.7374V32.8785ZM50.2618 32.8785H51.1718V36.8825H56.2418V32.8785H57.1518V41.9785H56.2418V37.7145H51.1718V41.9785H50.2618V32.8785ZM59.4913 32.8785H60.4013V40.9385H60.4273L65.0813 32.8785H66.3813V41.9785H65.4713V33.9185H65.4453L60.7913 41.9785H59.4913V32.8785ZM71.4508 38.6245C70.9308 38.6245 70.4931 38.5725 70.1378 38.4685C69.7824 38.3645 69.4878 38.2302 69.2538 38.0655C69.0284 37.9008 68.8508 37.7102 68.7208 37.4935C68.5994 37.2768 68.5084 37.0558 68.4478 36.8305C68.3871 36.5965 68.3524 36.3712 68.3438 36.1545C68.3351 35.9292 68.3308 35.7255 68.3308 35.5435V32.8785H69.2408V35.4785C69.2408 35.7212 69.2538 35.9768 69.2798 36.2455C69.3058 36.5142 69.3881 36.7655 69.5268 36.9995C69.6654 37.2248 69.8821 37.4155 70.1768 37.5715C70.4801 37.7188 70.9048 37.7925 71.4508 37.7925C72.2221 37.7925 72.9588 37.6798 73.6608 37.4545V32.8785H74.5708V41.9785H73.6608V38.3125C73.2881 38.4165 72.9111 38.4945 72.5298 38.5465C72.1571 38.5985 71.7974 38.6245 71.4508 38.6245ZM76.9093 32.8785H82.3693V33.7105H77.8193V36.8825H81.5893V37.7145H77.8193V41.1465H82.3693V41.9785H76.9093V32.8785ZM87.3098 42.0695C86.7638 42.0695 86.2654 41.9742 85.8148 41.7835C85.3641 41.5928 84.9741 41.3155 84.6448 40.9515C84.3154 40.5788 84.0598 40.1238 83.8778 39.5865C83.6958 39.0405 83.6048 38.4165 83.6048 37.7145V37.0125C83.6048 36.3452 83.6958 35.7515 83.8778 35.2315C84.0598 34.7028 84.3154 34.2608 84.6448 33.9055C84.9741 33.5415 85.3641 33.2642 85.8148 33.0735C86.2741 32.8828 86.7724 32.7875 87.3098 32.7875C87.8038 32.7875 88.2458 32.8612 88.6358 33.0085C89.0344 33.1472 89.3811 33.3378 89.6758 33.5805C89.9704 33.8232 90.2044 34.1092 90.3778 34.4385C90.5598 34.7592 90.6854 35.1058 90.7548 35.4785H89.7928C89.7234 35.2185 89.6194 34.9758 89.4808 34.7505C89.3508 34.5252 89.1818 34.3302 88.9738 34.1655C88.7658 33.9922 88.5231 33.8578 88.2458 33.7625C87.9684 33.6672 87.6564 33.6195 87.3098 33.6195C86.9111 33.6195 86.5428 33.6932 86.2048 33.8405C85.8668 33.9878 85.5721 34.2045 85.3208 34.4905C85.0781 34.7765 84.8874 35.1318 84.7488 35.5565C84.6101 35.9725 84.5408 36.4578 84.5408 37.0125V37.7145C84.5408 38.2952 84.6101 38.8065 84.7488 39.2485C84.8961 39.6905 85.0911 40.0588 85.3338 40.3535C85.5851 40.6482 85.8798 40.8692 86.2178 41.0165C86.5558 41.1638 86.9198 41.2375 87.3098 41.2375C88.0118 41.2375 88.5664 41.0512 88.9738 40.6785C89.3898 40.3058 89.6628 39.8292 89.7928 39.2485H90.7548C90.6854 39.6558 90.5598 40.0328 90.3778 40.3795C90.2044 40.7175 89.9704 41.0122 89.6758 41.2635C89.3811 41.5148 89.0344 41.7142 88.6358 41.8615C88.2458 42.0002 87.8038 42.0695 87.3098 42.0695ZM92.6388 32.8785H93.5488V36.8825H94.9788L97.9428 32.8785H99.0088L95.7328 37.2725L99.2688 41.9785H98.1507L94.9788 37.7145H93.5488V41.9785H92.6388V32.8785ZM103.618 32.8785H104.658L108.038 41.9785H107.05L106.101 39.3395H102.123L101.174 41.9785H100.238L103.618 32.8785ZM105.802 38.5075L104.138 33.8535H104.112L102.422 38.5075H105.802ZM114.6 41.9785V38.2605H112.585C112.524 38.2605 112.464 38.2605 112.403 38.2605C112.351 38.2518 112.299 38.2475 112.247 38.2475L110.18 41.9785H109.14L111.324 38.1045C110.674 37.9312 110.189 37.6235 109.868 37.1815C109.556 36.7395 109.4 36.2022 109.4 35.5695C109.4 34.7462 109.66 34.0918 110.18 33.6065C110.709 33.1212 111.51 32.8785 112.585 32.8785H115.51V41.9785H114.6ZM114.6 33.7105H112.65C111.835 33.7105 111.246 33.8752 110.882 34.2045C110.518 34.5338 110.336 34.9888 110.336 35.5695C110.336 36.1675 110.514 36.6268 110.869 36.9475C111.233 37.2682 111.827 37.4285 112.65 37.4285H114.6V33.7105ZM124.482 42.0695C123.936 42.0695 123.437 41.9742 122.987 41.7835C122.536 41.5928 122.146 41.3155 121.817 40.9515C121.487 40.5788 121.232 40.1238 121.05 39.5865C120.868 39.0405 120.777 38.4165 120.777 37.7145V37.0125C120.777 36.3452 120.868 35.7515 121.05 35.2315C121.232 34.7028 121.487 34.2608 121.817 33.9055C122.146 33.5415 122.536 33.2642 122.987 33.0735C123.446 32.8828 123.944 32.7875 124.482 32.7875C124.976 32.7875 125.418 32.8612 125.808 33.0085C126.206 33.1472 126.553 33.3378 126.848 33.5805C127.142 33.8232 127.376 34.1092 127.55 34.4385C127.732 34.7592 127.857 35.1058 127.927 35.4785H126.965C126.895 35.2185 126.791 34.9758 126.653 34.7505C126.523 34.5252 126.354 34.3302 126.146 34.1655C125.938 33.9922 125.695 33.8578 125.418 33.7625C125.14 33.6672 124.828 33.6195 124.482 33.6195C124.083 33.6195 123.715 33.6932 123.377 33.8405C123.039 33.9878 122.744 34.2045 122.493 34.4905C122.25 34.7765 122.059 35.1318 121.921 35.5565C121.782 35.9725 121.713 36.4578 121.713 37.0125V37.7145C121.713 38.2952 121.782 38.8065 121.921 39.2485C122.068 39.6905 122.263 40.0588 122.506 40.3535C122.757 40.6482 123.052 40.8692 123.39 41.0165C123.728 41.1638 124.092 41.2375 124.482 41.2375C125.184 41.2375 125.738 41.0512 126.146 40.6785C126.562 40.3058 126.835 39.8292 126.965 39.2485H127.927C127.857 39.6558 127.732 40.0328 127.55 40.3795C127.376 40.7175 127.142 41.0122 126.848 41.2635C126.553 41.5148 126.206 41.7142 125.808 41.8615C125.418 42.0002 124.976 42.0695 124.482 42.0695ZM128.636 41.2375H128.766C129.147 41.2375 129.442 41.1205 129.65 40.8865C129.866 40.6525 130.022 40.3318 130.118 39.9245C130.222 39.5085 130.282 39.0232 130.3 38.4685C130.317 37.9052 130.326 37.2985 130.326 36.6485V32.8785H136.046V41.9785H135.136V33.7105H131.236V36.6485C131.236 37.3678 131.218 38.0525 131.184 38.7025C131.158 39.3525 131.067 39.9288 130.911 40.4315C130.755 40.9342 130.508 41.3328 130.17 41.6275C129.84 41.9222 129.372 42.0695 128.766 42.0695H128.636V41.2375ZM140.928 39.3785L137.6 32.8785H138.64L141.396 38.3385H141.422L143.762 32.8785H144.75L140.785 41.9785H139.797L140.928 39.3785ZM148.499 37.2725L145.795 32.8785H146.809L149.24 36.8825H150.67V32.8785H151.58V36.8825H153.01L155.441 32.8785H156.455L153.738 37.2725L156.65 41.9785H155.584L153.01 37.7145H151.58V41.9785H150.67V37.7145H149.24L146.666 41.9785H145.6L148.499 37.2725ZM158.274 32.8785H163.734V33.7105H159.184V36.5965H161.329C162.343 36.5965 163.105 36.8392 163.617 37.3245C164.128 37.8012 164.384 38.4555 164.384 39.2875C164.384 40.1022 164.124 40.7565 163.604 41.2505C163.084 41.7358 162.325 41.9785 161.329 41.9785H158.274V32.8785ZM159.184 37.4285V41.1465H161.264C162.026 41.1465 162.581 40.9862 162.928 40.6655C163.274 40.3448 163.448 39.8855 163.448 39.2875C163.448 38.6895 163.274 38.2302 162.928 37.9095C162.581 37.5888 162.026 37.4285 161.264 37.4285H159.184ZM168.681 32.8785H169.721L173.101 41.9785H172.113L171.164 39.3395H167.186L166.237 41.9785H165.301L168.681 32.8785ZM170.865 38.5075L169.201 33.8535H169.175L167.485 38.5075H170.865Z" fill="white"/>
<path d="M15.0915 11.1648H10.3898V23.0225H5.06874V11.1648H0.366968V6.96762H15.0915V11.1648ZM32.2371 6.96762L25.7922 19.0546C25.0277 20.4919 24.0873 21.5852 22.9711 22.3344C21.8702 23.0836 20.6547 23.4582 19.3244 23.4582C18.2999 23.4582 17.2602 23.2442 16.2052 22.816L17.4666 18.917C18.1394 19.1005 18.6899 19.1922 19.118 19.1922C19.5155 19.1922 19.8519 19.1234 20.1271 18.9858C20.4177 18.8482 20.6929 18.6188 20.9528 18.2978L14.8061 6.96762H20.517L23.7051 13.7336L27.0078 6.96762H32.2371ZM41.0907 6.96762C42.5739 6.96762 43.8659 7.21227 44.9668 7.70156C46.0677 8.19085 46.9163 8.8942 47.5126 9.81162C48.109 10.729 48.4071 11.7994 48.4071 13.0226C48.4071 14.2458 48.109 15.3161 47.5126 16.2336C46.9163 17.151 46.0677 17.8543 44.9668 18.3436C43.8659 18.8329 42.5739 19.0776 41.0907 19.0776H38.7742V23.0225H33.3615V6.96762H41.0907ZM40.7467 14.9033C41.4806 14.9033 42.0311 14.7428 42.398 14.4217C42.765 14.0853 42.9485 13.6189 42.9485 13.0226C42.9485 12.4263 42.765 11.9676 42.398 11.6465C42.0311 11.3101 41.4806 11.1419 40.7467 11.1419H38.7742V14.9033H40.7467ZM75.1524 18.8253V26.1646H70.1984V23.0225H61.07V26.1646H56.116V18.8253H56.5747C57.5074 18.8253 58.1649 18.2366 58.5471 17.0592C58.9294 15.8819 59.174 14.1464 59.2811 11.8529L59.4645 6.96762H73.0424V18.8253H75.1524ZM63.9828 12.3116C63.9217 13.8559 63.7993 15.1709 63.6159 16.2565C63.4324 17.3268 63.1495 18.1831 62.7673 18.8253H67.7213V11.1648H64.0287L63.9828 12.3116ZM76.9702 6.96762H82.2913V15.3161L87.8187 6.96762H92.9104V23.0225H87.5894V14.6969L82.0848 23.0225H76.9702V6.96762ZM108.101 14.6051C109.004 14.9262 109.692 15.4079 110.166 16.0501C110.64 16.677 110.877 17.4491 110.877 18.3666C110.877 19.8038 110.303 20.943 109.156 21.7839C108.025 22.6096 106.419 23.0225 104.34 23.0225H95.7621V6.96762H103.904C105.892 6.96762 107.429 7.33459 108.514 8.06853C109.615 8.80246 110.166 9.83456 110.166 11.1648C110.166 11.9293 109.982 12.6021 109.615 13.1831C109.263 13.7642 108.759 14.2382 108.101 14.6051ZM101.083 13.1373H103.377C104.264 13.1373 104.707 12.7474 104.707 11.9676C104.707 11.1572 104.264 10.752 103.377 10.752H101.083V13.1373ZM104.088 19.2381C104.975 19.2381 105.418 18.81 105.418 17.9537C105.418 17.128 104.975 16.7152 104.088 16.7152H101.083V19.2381H104.088ZM126.155 18.9399V23.0225H112.807V6.96762H125.857V11.0501H118.128V12.9308H124.917V16.8299H118.128V18.9399H126.155ZM141.7 18.9399V23.0225H128.351V6.96762H141.401V11.0501H133.672V12.9308H140.461V16.8299H133.672V18.9399H141.7ZM156.235 14.6051C157.137 14.9262 157.825 15.4079 158.299 16.0501C158.773 16.677 159.01 17.4491 159.01 18.3666C159.01 19.8038 158.436 20.943 157.29 21.7839C156.158 22.6096 154.553 23.0225 152.473 23.0225H143.895V6.96762H152.037C154.025 6.96762 155.562 7.33459 156.647 8.06853C157.748 8.80246 158.299 9.83456 158.299 11.1648C158.299 11.9293 158.115 12.6021 157.748 13.1831C157.397 13.7642 156.892 14.2382 156.235 14.6051ZM149.216 13.1373H151.51C152.397 13.1373 152.84 12.7474 152.84 11.9676C152.84 11.1572 152.397 10.752 151.51 10.752H149.216V13.1373ZM152.221 19.2381C153.108 19.2381 153.551 18.81 153.551 17.9537C153.551 17.128 153.108 16.7152 152.221 16.7152H149.216V19.2381H152.221ZM169.105 23.3894C167.377 23.3894 165.825 23.0301 164.449 22.3115C163.073 21.5928 161.995 20.5989 161.215 19.3298C160.436 18.0455 160.046 16.6005 160.046 14.995C160.046 13.3896 160.436 11.9523 161.215 10.6832C161.995 9.39878 163.073 8.39727 164.449 7.67862C165.825 6.95998 167.377 6.60065 169.105 6.60065C170.833 6.60065 172.385 6.95998 173.761 7.67862C175.137 8.39727 176.215 9.39878 176.995 10.6832C177.775 11.9523 178.165 13.3896 178.165 14.995C178.165 16.6005 177.775 18.0455 176.995 19.3298C176.215 20.5989 175.137 21.5928 173.761 22.3115C172.385 23.0301 170.833 23.3894 169.105 23.3894ZM169.105 19.0088C169.778 19.0088 170.382 18.8482 170.917 18.5271C171.467 18.1907 171.903 17.7244 172.224 17.128C172.545 16.5164 172.706 15.8054 172.706 14.995C172.706 14.1847 172.545 13.4813 172.224 12.885C171.903 12.2734 171.467 11.807 170.917 11.4859C170.382 11.1495 169.778 10.9813 169.105 10.9813C168.432 10.9813 167.821 11.1495 167.27 11.4859C166.735 11.807 166.307 12.2734 165.986 12.885C165.665 13.4813 165.504 14.1847 165.504 14.995C165.504 15.8054 165.665 16.5164 165.986 17.128C166.307 17.7244 166.735 18.1907 167.27 18.5271C167.821 18.8482 168.432 19.0088 169.105 19.0088Z" fill="#F9CD2D"/>
<circle cx="173.5" cy="9.62695" r="4.5" fill="#FF0000"/>
</svg>
