<?xml version="1.0" encoding="utf-8"?><svg viewBox="0 0 492 492" xmlns="http://www.w3.org/2000/svg" xmlns:xlink="http://www.w3.org/1999/xlink"><style>:root>svg{display:none}:root>svg:target{display:block}</style><svg viewBox="0 0 26 26" id="at" xmlns="http://www.w3.org/2000/svg"><path d="M13.142 16.973a3.906 3.906 0 100-7.813 3.906 3.906 0 000 7.813z"/><path d="M18.328 20.879a9.376 9.376 0 114.19-7.813c0 2.158-.782 3.906-2.735 3.906-1.953 0-2.734-1.748-2.734-3.906V9.16"/></svg><svg viewBox="0 0 18 14" id="check" xmlns="http://www.w3.org/2000/svg"><path d="M1 7l6 6L17 1"/></svg><svg viewBox="0 0 491.996 491.996" id="chevron" xmlns="http://www.w3.org/2000/svg"><path d="M484.132 124.986l-16.116-16.228c-5.072-5.068-11.82-7.86-19.032-7.86-7.208 0-13.964 2.792-19.036 7.86l-183.84 183.848L62.056 108.554c-5.064-5.068-11.82-7.856-19.028-7.856s-13.968 2.788-19.036 7.856l-16.12 16.128c-10.496 10.488-10.496 27.572 0 38.06l219.136 219.924c5.064 5.064 11.812 8.632 19.084 8.632h.084c7.212 0 13.96-3.572 19.024-8.632l218.932-219.328c5.072-5.064 7.856-12.016 7.864-19.224 0-7.212-2.792-14.068-7.864-19.128z"/></svg><svg viewBox="0 0 25 26" id="clock" xmlns="http://www.w3.org/2000/svg"><path d="M12.5 21.941a9.375 9.375 0 100-18.75 9.375 9.375 0 000 18.75z"/><path d="M12.5 7.098v5.468h5.469"/></svg><svg viewBox="0 0 16 16" id="close" xmlns="http://www.w3.org/2000/svg"><path d="M9.175 8l6.075-6.075A.833.833 0 0014.075.75L8 6.825 1.925.742A.833.833 0 00.75 1.917L6.825 8 .742 14.075a.834.834 0 101.175 1.175L8 9.175l6.075 6.075a.833.833 0 001.175-1.175L9.175 8z"/></svg><svg viewBox="0 0 26 26" id="link" xmlns="http://www.w3.org/2000/svg"><path d="M12.856 7.54l1.933-1.934a4.307 4.307 0 016.084 6.084l-2.763 2.754a4.286 4.286 0 01-6.075 0"/><path d="M13.97 18.594l-1.934 1.933a4.306 4.306 0 01-6.084-6.084l2.764-2.753a4.286 4.286 0 016.074 0"/></svg><svg viewBox="0 0 32 32" id="location" xmlns="http://www.w3.org/2000/svg"><path d="M16 2A11.013 11.013 0 005 13a10.889 10.889 0 002.216 6.6s.3.395.349.452L16 30l8.439-9.953c.044-.053.345-.447.345-.447l.001-.003A10.885 10.885 0 0027 13 11.013 11.013 0 0016 2zm0 15a4 4 0 110-8 4 4 0 010 8z"/></svg><svg viewBox="0 0 20 16" id="mail" xmlns="http://www.w3.org/2000/svg"><path d="M20 4.608v8.142a3.25 3.25 0 01-3.066 3.245L16.75 16H3.25a3.25 3.25 0 01-3.245-3.066L0 12.75V4.608l9.652 5.056a.75.75 0 00.696 0L20 4.608zM3.25 0h13.5a3.25 3.25 0 013.234 2.924L10 8.154.016 2.924A3.25 3.25 0 013.064.005L3.25 0h13.5-13.5z"/></svg><svg viewBox="0 0 21 21" id="phone" xmlns="http://www.w3.org/2000/svg"><path d="M6.19 10.66c.826 1.66 2.208 3 3.919 3.799a.823.823 0 00.794-.059l2.512-1.63a.809.809 0 01.764-.069l4.704 1.963c.16.065.295.18.382.326a.753.753 0 01.1.485 4.648 4.648 0 01-1.597 2.922 4.906 4.906 0 01-3.187 1.17c-3.625 0-7.102-1.4-9.665-3.89C2.353 13.185.913 9.806.913 6.284c0-1.14.428-2.24 1.203-3.096a4.869 4.869 0 013.008-1.552.813.813 0 01.498.097c.151.085.269.215.336.371l2.02 4.58a.762.762 0 01-.06.733l-1.679 2.48a.766.766 0 00-.05.762z"/></svg><svg viewBox="0 0 19 18" id="text-icon" xmlns="http://www.w3.org/2000/svg"><path d="M2.531 3.85h1.087M9.054 3.85h1.087M2.531 9.285h1.63M8.51 9.285h1.63M12.308 7.111H17.2M12.315 9.285h4.892M5.786 11.46H17.2M5.786 13.634H17.2M3.618 9.285V3.85l2.718 4.348L9.054 3.85v5.435M2.524 3.85h1.088M9.047 3.85h1.087M2.524 9.285h1.631M8.503 9.285h1.631M12.308 7.111H17.2M12.308 9.285H17.2M5.786 11.46H17.2M5.786 13.634H17.2"/><path d="M3.611 9.285V3.85L6.33 8.198 9.047 3.85v5.435"/></svg><svg viewBox="0 0 19 18" id="video-icon" xmlns="http://www.w3.org/2000/svg"><path d="M2.401 4.122h8.697a2.174 2.174 0 012.174 2.174v6.522a.544.544 0 01-.544.544H4.032a2.174 2.174 0 01-2.175-2.174V4.665a.544.544 0 01.544-.543zM13.272 7.655l3.805-2.174v6.522L13.272 9.83"/></svg></svg>