<svg width="26" height="26" viewBox="0 0 26 26" fill="none" xmlns="http://www.w3.org/2000/svg">
<path d="M13.1418 16.9727C15.2992 16.9727 17.0481 15.2238 17.0481 13.0664C17.0481 10.909 15.2992 9.16016 13.1418 9.16016C10.9845 9.16016 9.2356 10.909 9.2356 13.0664C9.2356 15.2238 10.9845 16.9727 13.1418 16.9727Z" stroke="black" stroke-width="1.5" stroke-linecap="round" stroke-linejoin="round"/>
<path d="M18.3279 20.8787C16.5878 22.034 14.5116 22.5751 12.4289 22.4162C10.3462 22.2572 8.37625 21.4073 6.8316 20.0013C5.28694 18.5952 4.25608 16.7136 3.90258 14.655C3.54908 12.5964 3.89319 10.4786 4.88032 8.63785C5.86744 6.79706 7.44103 5.33865 9.3514 4.49402C11.2618 3.6494 13.3995 3.46694 15.4254 3.97559C17.4512 4.48425 19.2492 5.65489 20.534 7.30176C21.8188 8.94863 22.5169 10.9774 22.5173 13.0662C22.5173 15.2244 21.7361 16.9724 19.783 16.9724C17.8298 16.9724 17.0486 15.2244 17.0486 13.0662V9.15991" stroke="black" stroke-width="1.5" stroke-linecap="round" stroke-linejoin="round"/>
</svg>
