<svg width="26" height="26" viewBox="0 0 26 26" fill="none" xmlns="http://www.w3.org/2000/svg">
<path d="M12.8557 7.53925L14.7893 5.60566C15.608 4.85949 16.6827 4.45745 17.79 4.48309C18.8974 4.50873 19.9524 4.96007 20.7356 5.74332C21.5189 6.52657 21.9702 7.58151 21.9959 8.6889C22.0215 9.79629 21.6195 10.871 20.8733 11.6896L18.1096 14.4435C17.7113 14.8433 17.238 15.1606 16.7168 15.377C16.1956 15.5935 15.6369 15.7049 15.0725 15.7049C14.5082 15.7049 13.9494 15.5935 13.4282 15.377C12.907 15.1606 12.4337 14.8433 12.0354 14.4435" stroke="black" stroke-width="1.5" stroke-linecap="round" stroke-linejoin="round"/>
<path d="M13.9694 18.5939L12.0358 20.5275C11.2172 21.2736 10.1425 21.6757 9.03509 21.65C7.9277 21.6244 6.87277 21.173 6.08951 20.3898C5.30626 19.6065 4.85492 18.5516 4.82928 17.4442C4.80364 16.3368 5.20568 15.2621 5.95185 14.4435L8.71552 11.6896C9.11382 11.2898 9.58714 10.9725 10.1083 10.7561C10.6295 10.5396 11.1883 10.4282 11.7526 10.4282C12.317 10.4282 12.8758 10.5396 13.3969 10.7561C13.9181 10.9725 14.3914 11.2898 14.7897 11.6896" stroke="black" stroke-width="1.5" stroke-linecap="round" stroke-linejoin="round"/>
</svg>
