<svg width="21" height="21" viewBox="0 0 21 21" fill="none" xmlns="http://www.w3.org/2000/svg">
<path d="M6.18909 10.6601C7.01646 12.3203 8.39806 13.6593 10.1088 14.4589C10.235 14.517 10.3745 14.5421 10.5137 14.5318C10.653 14.5216 10.787 14.4762 10.9028 14.4003L13.4154 12.7695C13.5264 12.6963 13.6547 12.6517 13.7882 12.6397C13.9218 12.6278 14.0563 12.6489 14.1792 12.7011L18.8828 14.664C19.0436 14.729 19.1779 14.8436 19.265 14.99C19.3522 15.1365 19.3874 15.3067 19.3652 15.4745C19.2162 16.6052 18.6482 17.6442 17.7677 18.3974C16.8871 19.1505 15.7543 19.5661 14.5812 19.5663C10.9561 19.5663 7.47941 18.1671 4.91604 15.6764C2.35268 13.1856 0.912598 9.8075 0.912598 6.2851C0.912862 5.14525 1.34056 4.04455 2.11566 3.18896C2.89077 2.33337 3.96016 1.78151 5.12374 1.63666C5.29644 1.6151 5.47165 1.64931 5.62239 1.73401C5.77312 1.81871 5.89102 1.94921 5.95793 2.10541L7.97807 6.68549C8.0306 6.80301 8.05258 6.93129 8.04206 7.05902C8.03155 7.18674 7.98886 7.30999 7.91776 7.41791L6.23934 9.89838C6.16461 10.0106 6.12076 10.1395 6.11196 10.2729C6.10316 10.4062 6.12972 10.5396 6.18909 10.6601V10.6601Z" stroke="black" stroke-width="1.5" stroke-linecap="round" stroke-linejoin="round"/>
</svg>
