<svg width="19" height="18" viewBox="0 0 19 18" fill="none" xmlns="http://www.w3.org/2000/svg">
<path d="M2.53125 3.84985H3.61834" stroke="black" stroke-width="0.869674" stroke-linecap="round" stroke-linejoin="round"/>
<path d="M9.05371 3.84985H10.1408" stroke="black" stroke-width="0.869674" stroke-linecap="round" stroke-linejoin="round"/>
<path d="M2.53125 9.28534H4.16189" stroke="black" stroke-width="0.869674" stroke-linecap="round" stroke-linejoin="round"/>
<path d="M8.51025 9.28534H10.1409" stroke="black" stroke-width="0.869674" stroke-linecap="round" stroke-linejoin="round"/>
<path d="M12.3081 7.11115H17.2" stroke="black" stroke-width="0.869674" stroke-linecap="round" stroke-linejoin="round"/>
<path d="M12.3149 9.28534H17.2069" stroke="black" stroke-width="0.869674" stroke-linecap="round" stroke-linejoin="round"/>
<path d="M5.78564 11.4595H17.2001" stroke="black" stroke-width="0.869674" stroke-linecap="round" stroke-linejoin="round"/>
<path d="M5.78564 13.6337H17.2001" stroke="black" stroke-width="0.869674" stroke-linecap="round" stroke-linejoin="round"/>
<path d="M3.61816 9.28532V3.84985L6.3359 8.19822L9.05363 3.84985V9.28532" stroke="black" stroke-width="0.869674" stroke-linecap="round" stroke-linejoin="round"/>
<path d="M2.52441 3.84985H3.61151" stroke="black" stroke-width="0.869674" stroke-linecap="round" stroke-linejoin="round"/>
<path d="M9.04688 3.84985H10.134" stroke="black" stroke-width="0.869674" stroke-linecap="round" stroke-linejoin="round"/>
<path d="M2.52441 9.28534H4.15505" stroke="black" stroke-width="0.869674" stroke-linecap="round" stroke-linejoin="round"/>
<path d="M8.50342 9.28534H10.1341" stroke="black" stroke-width="0.869674" stroke-linecap="round" stroke-linejoin="round"/>
<path d="M12.3081 7.11115H17.2" stroke="black" stroke-width="0.869674" stroke-linecap="round" stroke-linejoin="round"/>
<path d="M12.3081 9.28534H17.2" stroke="black" stroke-width="0.869674" stroke-linecap="round" stroke-linejoin="round"/>
<path d="M5.78564 11.4595H17.2001" stroke="black" stroke-width="0.869674" stroke-linecap="round" stroke-linejoin="round"/>
<path d="M5.78564 13.6337H17.2001" stroke="black" stroke-width="0.869674" stroke-linecap="round" stroke-linejoin="round"/>
<path d="M3.61133 9.28532V3.84985L6.32906 8.19822L9.04679 3.84985V9.28532" stroke="black" stroke-width="0.869674" stroke-linecap="round" stroke-linejoin="round"/>
</svg>
