<svg width="19" height="18" viewBox="0 0 19 18" fill="none" xmlns="http://www.w3.org/2000/svg">
<path d="M2.40097 4.12164H11.0977C11.6743 4.12164 12.2274 4.35071 12.6351 4.75845C13.0428 5.16619 13.2719 5.7192 13.2719 6.29583V12.8184C13.2719 12.9625 13.2146 13.1008 13.1127 13.2027C13.0108 13.3047 12.8725 13.3619 12.7283 13.3619H4.03161C3.45498 13.3619 2.90196 13.1329 2.49423 12.7251C2.08649 12.3174 1.85742 11.7644 1.85742 11.1877V4.66519C1.85742 4.52103 1.91469 4.38278 2.01662 4.28084C2.11856 4.17891 2.25681 4.12164 2.40097 4.12164V4.12164Z" stroke="black" stroke-width="0.869674" stroke-linecap="round" stroke-linejoin="round"/>
<path d="M13.272 7.65472L17.0768 5.48053V12.0031L13.272 9.8289" stroke="black" stroke-width="0.869674" stroke-linecap="round" stroke-linejoin="round"/>
</svg>
